# File created by Blade
# Date/Time:  Tue Apr 07 20:29:43 2015
#---------------------------------------------------------
:version 1.10
:name HOM
:units
  mass 1.0
  length 1.000000
  angle deg
:documentation
     Acclaim Skeleton File
:root
   axis xyz
   order TX TY TZ RX RY RZ
   position 0.000000 0.000000 0.000000
   orientation 0 0 0
:bonedata
   begin
      id 1
      name Spine_dum
      direction 0.000000 1.000000 0.000000
      length 4.885285
      axis 0.0 0.0 0.0 xyz
   end
   begin
      id 2
      name LeftUpLeg_dum
      direction 1.000000 0.000000 0.000000
      length 2.672193
      axis 0.0 0.0 0.0 xyz
   end
   begin
      id 3
      name RightUpLeg_dum
      direction -1.000000 0.000000 0.000000
      length 2.672193
      axis 0.0 0.0 0.0 xyz
   end
   begin
      id 4
      name Spine
      direction 0.000000 1.000000 0.000000
      length 0.000000
      axis 0.0 0.0 0.0 xyz
      dof rx ry rz
   end
   begin
      id 5
      name Spine_dum1
      direction 0.000000 1.000000 0.000000
      length 16.494159
      axis 0.0 0.0 0.0 xyz
   end
   begin
      id 6
      name Spine_dum2
      direction 0.000000 1.000000 0.000000
      length 10.663448
      axis 0.0 0.0 0.0 xyz
   end
   begin
      id 7
      name Spine_dum3
      direction 0.000000 1.000000 0.000000
      length 10.663448
      axis 0.0 0.0 0.0 xyz
   end
   begin
      id 8
      name Head
      direction 0.000000 1.000000 0.000000
      length 4.527550
      axis 0.0 0.0 0.0 xyz
      dof rx ry rz
   end
   begin
      id 9
      name LeftShoulder
      direction 1.000000 0.000000 0.000000
      length 7.531907
      axis 0.0 0.0 -90.0 xyz
      dof rx ry rz
   end
   begin
      id 10
      name LeftArm
      direction 1.000000 0.000000 0.000000
      length 10.229199
      axis 0.0 0.0 -90.0 xyz
      dof rx ry rz
   end
   begin
      id 11
      name LeftForeArm
      direction 1.000000 0.000000 0.000000
      length 8.673495
      axis 0.0 0.0 -90.0 xyz
      dof ry rz rx
   end
   begin
      id 12
      name LeftHand
      direction 0.000000 0.000000 0.000000
      length 0.000000
      axis 0.0 0.0 -90.0 xyz
      dof rx ry rz
   end
   begin
      id 13
      name LeftHand_dum1
      direction 0.000000 0.000000 0.000000
      length 0.000000
      axis 0.0 0.0 -90.0 xyz
   end
   begin
      id 14
      name LeftHand_dum2
      direction 1.000000 0.000000 0.000000
      length 3.937000
      axis 0.0 0.0 -90.0 xyz
   end
   begin
      id 15
      name LeftHandThumb1
      direction 0.000000 0.000000 1.000000
      length 3.937000
      axis 0.0 0.0 -90.0 xyz
      dof rx rz ry
   end
   begin
      id 16
      name RightShoulder
      direction -1.000000 0.000000 0.000000
      length 7.531907
      axis 0.0 0.0 90.0 xyz
      dof rx ry rz
   end
   begin
      id 17
      name RightArm
      direction -1.000000 0.000000 0.000000
      length 10.229199
      axis 0.0 0.0 90.0 xyz
      dof rx ry rz
   end
   begin
      id 18
      name RightForeArm
      direction -1.000000 0.000000 0.000000
      length 8.673495
      axis 0.0 0.0 90.0 xyz
      dof ry rz rx
   end
   begin
      id 19
      name RightHand
      direction 0.000000 0.000000 0.000000
      length 0.000000
      axis 0.0 0.0 90.0 xyz
      dof rx ry rz
   end
   begin
      id 20
      name RightHand_dum1
      direction 0.000000 0.000000 0.000000
      length 0.000000
      axis 0.0 0.0 90.0 xyz
   end
   begin
      id 21
      name RightHand_dum2
      direction -1.000000 0.000000 0.000000
      length 3.937000
      axis 0.0 0.0 90.0 xyz
   end
   begin
      id 22
      name RightHandThumb1
      direction 0.000000 0.000000 1.000000
      length 3.937000
      axis 0.0 0.0 90.0 xyz
      dof rx rz ry
   end
   begin
      id 23
      name LeftUpLeg
      direction 0.000000 -1.000000 0.000000
      length 16.263388
      axis 0.0 0.0 0.0 xyz
      dof rx ry rz
   end
   begin
      id 24
      name LeftLeg
      direction 0.000000 -1.000000 0.000000
      length 14.328163
      axis 0.0 0.0 0.0 xyz
      dof rx ry rz
   end
   begin
      id 25
      name LeftFoot
      direction 0.000000 -0.258819 0.965926
      length 5.031290
      axis 15.0 0.0 0.0 xyz
      dof rx ry rz
   end
   begin
      id 26
      name LeftToeBase
      direction 0.000000 0.000000 1.000000
      length 2.952750
      axis 0.0 0.0 0.0 xyz
      dof rx ry rz
   end
   begin
      id 27
      name RightUpLeg
      direction 0.000000 -1.000000 0.000000
      length 16.263388
      axis 0.0 0.0 0.0 xyz
      dof rx ry rz
   end
   begin
      id 28
      name RightLeg
      direction 0.000000 -1.000000 0.000000
      length 14.328163
      axis 0.0 0.0 0.0 xyz
      dof rx ry rz
   end
   begin
      id 29
      name RightFoot
      direction 0.000000 -0.258819 0.965926
      length 5.031290
      axis 15.0 0.0 0.0 xyz
      dof rx ry rz
   end
   begin
      id 30
      name RightToeBase
      direction 0.000000 0.000000 1.000000
      length 2.952750
      axis 0.0 0.0 0.0 xyz
      dof rx ry rz
   end
:hierarchy
   begin
      root Spine_dum LeftUpLeg_dum RightUpLeg_dum
      Spine_dum Spine
      LeftUpLeg_dum LeftUpLeg
      RightUpLeg_dum RightUpLeg
      Spine Spine_dum1 Spine_dum2 Spine_dum3
      Spine_dum1 Head
      Spine_dum2 LeftShoulder
      Spine_dum3 RightShoulder
      LeftShoulder LeftArm
      LeftArm LeftForeArm
      LeftForeArm LeftHand
      LeftHand LeftHand_dum1 LeftHand_dum2
      LeftHand_dum1 LeftHandThumb1
      RightShoulder RightArm
      RightArm RightForeArm
      RightForeArm RightHand
      RightHand RightHand_dum1 RightHand_dum2
      RightHand_dum1 RightHandThumb1
      LeftUpLeg LeftLeg
      LeftLeg LeftFoot
      LeftFoot LeftToeBase
      RightUpLeg RightLeg
      RightLeg RightFoot
      RightFoot RightToeBase
   end

# File created by Blade
# Date/Time:  Tue Apr 07 20:29:34 2015
# Frame Rate: 120.000 fps
#------------------------------------------------------
:FULLY-SPECIFIED
:DEGREES
230
root 3.851034 32.681456 -4.327851 0.665097 11.776259 -3.810151
Spine 1.073539 -2.560669 0.511029
Head 17.739049 9.977262 3.289547
LeftShoulder -19.975926 46.300897 8.273009
LeftArm 47.318735 -7.123696 -87.236891
LeftForeArm -3.064218 -0.000000 19.792917
LeftHand 6.108646 -0.000000 -1.245154
LeftHandThumb1 -26.253704 0.000000 33.147579
RightShoulder -5.477902 -4.813777 -17.725049
RightArm 13.945003 4.601578 83.700887
RightForeArm -1.479733 0.000000 16.135310
RightHand 5.388361 0.000000 -6.959019
RightHandThumb1 -24.326973 -0.000000 -32.862282
LeftUpLeg -3.161732 -7.755774 -1.319635
LeftLeg 6.865733 -0.000000 -0.000000
LeftFoot -7.614998 10.695684 -4.821662
LeftToeBase -10.782662 -0.000000 0.000000
RightUpLeg -60.132175 -13.296543 -0.295577
RightLeg 91.405988 -0.000000 -0.000000
RightFoot 20.204437 -4.658399 4.579298
RightToeBase 13.275328 -0.000000 -0.000000
231
root 3.849896 32.695583 -4.319380 0.381942 11.904300 -4.088458
Spine 1.216613 -2.638715 0.795086
Head 17.796486 9.915211 3.263992
LeftShoulder -20.008545 46.266828 8.217835
LeftArm 47.290970 -7.003274 -87.171655
LeftForeArm -3.105800 -0.000000 19.876839
LeftHand 6.064835 0.000000 -1.313025
LeftHandThumb1 -26.253704 0.000000 33.147579
RightShoulder -5.460201 -4.741187 -17.679325
RightArm 13.990244 4.557552 83.512768
RightForeArm -1.445683 -0.000000 16.021089
RightHand 5.487022 -0.000000 -7.044389
RightHandThumb1 -24.326973 -0.000000 -32.862282
LeftUpLeg -2.941015 -7.743849 -1.084508
LeftLeg 6.884275 -0.000000 -0.000000
LeftFoot -7.651623 10.685980 -4.801516
LeftToeBase -10.624019 -0.000000 0.000000
RightUpLeg -61.283914 -13.300726 0.008498
RightLeg 92.697139 -0.000000 -0.000000
RightFoot 20.435604 -4.772458 4.545020
RightToeBase 13.520428 -0.000000 -0.000000
232
root 3.848831 32.708612 -4.307183 0.103830 12.029082 -4.352641
Spine 1.347305 -2.652272 1.061452
Head 17.845382 9.826227 3.262304
LeftShoulder -19.895857 46.195308 8.283486
LeftArm 47.178969 -6.950033 -87.191106
LeftForeArm -2.991797 -0.000000 20.000448
LeftHand 5.983824 -0.000000 -1.523307
LeftHandThumb1 -26.253704 0.000000 33.147579
RightShoulder -5.492672 -4.725361 -17.649670
RightArm 14.041669 4.553247 83.376213
RightForeArm -1.452343 -0.000000 15.940395
RightHand 5.328085 -0.000000 -6.855922
RightHandThumb1 -24.326973 -0.000000 -32.862282
LeftUpLeg -2.708395 -7.756949 -0.868664
LeftLeg 6.889458 -0.000000 -0.000000
LeftFoot -7.629903 10.719837 -4.679194
LeftToeBase -10.680750 -0.000000 0.000000
RightUpLeg -62.433917 -13.260795 0.300761
RightLeg 93.988642 -0.000000 -0.000000
RightFoot 20.574921 -4.774857 4.210429
RightToeBase 14.686334 -0.000000 -0.000000
233
root 3.844339 32.721770 -4.296794 -0.160851 12.124348 -4.640583
Spine 1.469632 -2.648321 1.343180
Head 17.862228 9.761536 3.290274
LeftShoulder -19.830061 46.132885 8.317109
LeftArm 47.106987 -6.885079 -87.219183
LeftForeArm -2.858427 -0.000000 20.050323
LeftHand 6.042817 -0.000000 -1.653963
LeftHandThumb1 -26.253704 0.000000 33.147579
RightShoulder -5.504333 -4.677128 -17.606630
RightArm 14.068907 4.603908 83.242037
RightForeArm -1.511259 -0.000000 15.838558
RightHand 5.355541 -0.000000 -6.797627
RightHandThumb1 -24.326973 -0.000000 -32.862282
LeftUpLeg -2.495332 -7.741673 -0.622919
LeftLeg 6.887594 -0.000000 -0.000000
LeftFoot -7.599176 10.788444 -4.513664
LeftToeBase -10.795520 -0.000000 0.000000
RightUpLeg -63.584381 -13.209472 0.607382
RightLeg 95.221259 -0.000000 -0.000000
RightFoot 20.754442 -4.629717 3.791080
RightToeBase 14.754765 -0.000000 -0.000000
234
root 3.839669 32.733849 -4.287840 -0.402562 12.213551 -4.926471
Spine 1.570187 -2.648732 1.617239
Head 17.874389 9.685985 3.323237
LeftShoulder -19.828425 46.100454 8.308194
LeftArm 47.085009 -6.836644 -87.295563
LeftForeArm -2.689551 0.000000 20.082669
LeftHand 6.002005 -0.000000 -1.896776
LeftHandThumb1 -26.253704 0.000000 33.147579
RightShoulder -5.505314 -4.585936 -17.558295
RightArm 14.065739 4.602606 83.081495
RightForeArm -1.421305 -0.000000 15.695925
RightHand 5.418403 -0.000000 -6.937673
RightHandThumb1 -24.326973 -0.000000 -32.862282
LeftUpLeg -2.318334 -7.726895 -0.378566
LeftLeg 6.913242 -0.000000 -0.000000
LeftFoot -7.582968 10.854139 -4.274042
LeftToeBase -10.913748 -0.000000 0.000000
RightUpLeg -64.745594 -13.146650 0.904580
RightLeg 96.423315 -0.000000 -0.000000
RightFoot 20.848651 -4.334372 3.332999
RightToeBase 15.786758 -0.000000 -0.000000
